<mxfile host="65bd71144e">
    <diagram id="r6o-PPFSaccZSh0x_6Jx" name="Page-1">
        <mxGraphModel dx="2016" dy="216" grid="1" gridSize="10" guides="1" tooltips="1" connect="1" arrows="1" fold="1" page="1" pageScale="1" pageWidth="850" pageHeight="1100" math="0" shadow="0">
            <root>
                <mxCell id="0"/>
                <mxCell id="1" parent="0"/>
                <mxCell id="2" value="main.js" style="shape=ext;double=1;whiteSpace=wrap;html=1;aspect=fixed;" parent="1" vertex="1">
                    <mxGeometry x="-420" y="170" width="70" height="70" as="geometry"/>
                </mxCell>
                <mxCell id="21" value="Plan.js" style="whiteSpace=wrap;html=1;aspect=fixed;gradientColor=none;align=center;verticalAlign=middle;" parent="1" vertex="1">
                    <mxGeometry x="-520" y="280" width="50" height="50" as="geometry"/>
                </mxCell>
                <mxCell id="22" value="" style="endArrow=none;html=1;exitX=1;exitY=0;exitDx=0;exitDy=0;entryX=0;entryY=1;entryDx=0;entryDy=0;" parent="1" source="21" target="2" edge="1">
                    <mxGeometry width="50" height="50" relative="1" as="geometry">
                        <mxPoint x="-240" y="580" as="sourcePoint"/>
                        <mxPoint x="-190" y="530" as="targetPoint"/>
                    </mxGeometry>
                </mxCell>
                <mxCell id="24" value="Seeds" style="whiteSpace=wrap;html=1;aspect=fixed;gradientColor=none;align=center;verticalAlign=middle;" parent="1" vertex="1">
                    <mxGeometry x="-360" y="390" width="50" height="50" as="geometry"/>
                </mxCell>
                <mxCell id="29" value="Fields" style="whiteSpace=wrap;html=1;aspect=fixed;gradientColor=none;align=center;verticalAlign=middle;" vertex="1" parent="1">
                    <mxGeometry x="-480" y="390" width="50" height="50" as="geometry"/>
                </mxCell>
                <mxCell id="31" value="Tractor" style="whiteSpace=wrap;html=1;aspect=fixed;gradientColor=none;align=center;verticalAlign=middle;" vertex="1" parent="1">
                    <mxGeometry x="-410" y="280" width="50" height="50" as="geometry"/>
                </mxCell>
                <mxCell id="32" value="Harvester" style="whiteSpace=wrap;html=1;aspect=fixed;gradientColor=none;align=center;verticalAlign=middle;" vertex="1" parent="1">
                    <mxGeometry x="-320" y="280" width="50" height="50" as="geometry"/>
                </mxCell>
                <mxCell id="33" value="Catalog" style="whiteSpace=wrap;html=1;aspect=fixed;gradientColor=none;align=center;verticalAlign=middle;" vertex="1" parent="1">
                    <mxGeometry x="-230" y="280" width="50" height="50" as="geometry"/>
                </mxCell>
                <mxCell id="34" value="" style="endArrow=none;html=1;entryX=0.5;entryY=0;entryDx=0;entryDy=0;exitX=0.5;exitY=1;exitDx=0;exitDy=0;" edge="1" parent="1" source="2" target="31">
                    <mxGeometry width="50" height="50" relative="1" as="geometry">
                        <mxPoint x="-370" y="250" as="sourcePoint"/>
                        <mxPoint x="20" y="360" as="targetPoint"/>
                    </mxGeometry>
                </mxCell>
                <mxCell id="36" value="" style="endArrow=none;html=1;exitX=1;exitY=1;exitDx=0;exitDy=0;entryX=0.5;entryY=0;entryDx=0;entryDy=0;" edge="1" parent="1" source="2" target="32">
                    <mxGeometry width="50" height="50" relative="1" as="geometry">
                        <mxPoint x="-30" y="410" as="sourcePoint"/>
                        <mxPoint x="20" y="360" as="targetPoint"/>
                    </mxGeometry>
                </mxCell>
                <mxCell id="37" value="" style="endArrow=none;html=1;exitX=1;exitY=0.75;exitDx=0;exitDy=0;entryX=0.5;entryY=0;entryDx=0;entryDy=0;" edge="1" parent="1" source="2" target="33">
                    <mxGeometry width="50" height="50" relative="1" as="geometry">
                        <mxPoint x="-30" y="410" as="sourcePoint"/>
                        <mxPoint x="20" y="360" as="targetPoint"/>
                    </mxGeometry>
                </mxCell>
                <mxCell id="38" value="" style="endArrow=none;html=1;exitX=0.5;exitY=1;exitDx=0;exitDy=0;entryX=0.5;entryY=0;entryDx=0;entryDy=0;" edge="1" parent="1" source="31" target="29">
                    <mxGeometry width="50" height="50" relative="1" as="geometry">
                        <mxPoint x="-30" y="340" as="sourcePoint"/>
                        <mxPoint x="20" y="290" as="targetPoint"/>
                    </mxGeometry>
                </mxCell>
                <mxCell id="39" value="" style="endArrow=none;html=1;exitX=0.5;exitY=1;exitDx=0;exitDy=0;entryX=0.5;entryY=0;entryDx=0;entryDy=0;" edge="1" parent="1" source="31" target="24">
                    <mxGeometry width="50" height="50" relative="1" as="geometry">
                        <mxPoint x="-30" y="450" as="sourcePoint"/>
                        <mxPoint x="20" y="400" as="targetPoint"/>
                    </mxGeometry>
                </mxCell>
                <mxCell id="40" value="" style="endArrow=none;html=1;exitX=0.25;exitY=0;exitDx=0;exitDy=0;" edge="1" parent="1" source="29" target="2">
                    <mxGeometry width="50" height="50" relative="1" as="geometry">
                        <mxPoint x="20" y="340" as="sourcePoint"/>
                        <mxPoint x="70" y="290" as="targetPoint"/>
                    </mxGeometry>
                </mxCell>
            </root>
        </mxGraphModel>
    </diagram>
</mxfile>